<svg id="圖層_1" data-name="圖層 1" xmlns="http://www.w3.org/2000/svg" viewBox="0 0 428 60"><defs><style>.cls-1{fill:#000079;}</style></defs><title>logo</title><path class="cls-1" d="M19.61,48.57h1.22v6.3h4v.77H19.61Z"/><path class="cls-1" d="M30.24,48.57v7.07H29V48.57Z"/><path class="cls-1" d="M35.16,48.66a16.4,16.4,0,0,1,2.23-.15A4.83,4.83,0,0,1,40,49a1.39,1.39,0,0,1,.79,1.25c0,.68-.61,1.28-1.6,1.55v0c.9.16,1.95.71,1.95,1.77a1.69,1.69,0,0,1-.8,1.41,5.83,5.83,0,0,1-3.26.67c-.85,0-1.49-.05-1.9-.08Zm1.22,2.9H37.5c1.27,0,2-.51,2-1.19s-.83-1.15-2.06-1.15a7.41,7.41,0,0,0-1.09.06Zm0,3.39a9.31,9.31,0,0,0,1,0c1.26,0,2.43-.34,2.43-1.37s-1.11-1.37-2.44-1.37h-1Z"/><path class="cls-1" d="M45.55,48.66a17.69,17.69,0,0,1,2.34-.15,4.92,4.92,0,0,1,2.74.58,1.6,1.6,0,0,1,.74,1.35c0,.93-.79,1.55-1.78,1.8v0A2,2,0,0,1,51,53.7a9.67,9.67,0,0,0,.72,1.94H50.44A6.94,6.94,0,0,1,49.82,54a1.69,1.69,0,0,0-1.9-1.37H46.77v3.06H45.55Zm1.22,3.23H48c1.31,0,2.14-.54,2.14-1.35s-.89-1.32-2.17-1.32a7,7,0,0,0-1.21.08Z"/><path class="cls-1" d="M57.48,53.42l-1,2.22H55.24l3.21-7.07h1.47l3.23,7.07H61.84l-1-2.22Zm3.1-.72-.93-2c-.21-.46-.35-.89-.49-1.29h0c-.14.41-.28.84-.47,1.28l-.93,2Z"/><path class="cls-1" d="M67.32,48.66a17.69,17.69,0,0,1,2.34-.15,4.92,4.92,0,0,1,2.74.58,1.6,1.6,0,0,1,.74,1.35c0,.93-.79,1.55-1.78,1.8v0a2,2,0,0,1,1.39,1.43,9.67,9.67,0,0,0,.72,1.94H72.21A6.94,6.94,0,0,1,71.59,54a1.69,1.69,0,0,0-1.9-1.37H68.54v3.06H67.32Zm1.22,3.23h1.24c1.31,0,2.13-.54,2.13-1.35s-.88-1.32-2.17-1.32a6.91,6.91,0,0,0-1.2.08Z"/><path class="cls-1" d="M78.88,48.57v7.07H77.65V48.57Z"/><path class="cls-1" d="M88.68,52.33H85v2.55h4.1v.76H83.8V48.57h5.1v.76H85v2.24h3.66Z"/><path class="cls-1" d="M93.33,54.53a5.42,5.42,0,0,0,2.18.46c1.24,0,2-.49,2-1.21s-.52-1-1.79-1.4c-1.54-.41-2.5-1-2.5-2s1.23-1.92,3.06-1.92a5.49,5.49,0,0,1,2.09.34l-.34.75a4.45,4.45,0,0,0-1.79-.34c-1.29,0-1.78.58-1.78,1.06,0,.66.57,1,1.88,1.36,1.6.47,2.4,1,2.4,2.08s-1.06,2-3.3,2A6,6,0,0,1,93,55.29Z"/><path class="cls-1" d="M142.69,55.64h-1.78l-6.38-9.88a3.71,3.71,0,0,1-.39-.77h-.06a12,12,0,0,1,.07,1.7v9H132.7V43.25h1.88L140.79,53c.26.41.43.68.5.83h0a12.55,12.55,0,0,1-.09-1.82V43.25h1.45Z"/><path class="cls-1" d="M152.09,55.64h-1.42V54.26h0a3,3,0,0,1-2.72,1.59,2.9,2.9,0,0,1-2.07-.7,2.43,2.43,0,0,1-.75-1.86c0-1.65,1-2.61,2.93-2.88l2.65-.38q0-2.25-1.83-2.25A4.33,4.33,0,0,0,146,48.87V47.42a5.42,5.42,0,0,1,3-.83q3.12,0,3.12,3.3Zm-1.42-4.47-2.14.29a3.46,3.46,0,0,0-1.48.49,1.39,1.39,0,0,0-.5,1.24,1.36,1.36,0,0,0,.46,1.06,1.81,1.81,0,0,0,1.23.41,2.29,2.29,0,0,0,1.74-.74,2.63,2.63,0,0,0,.69-1.87Z"/><path class="cls-1" d="M158.86,55.56a2.76,2.76,0,0,1-1.32.27c-1.55,0-2.33-.86-2.33-2.59V48h-1.52V46.79h1.52V44.63l1.42-.46v2.62h2.23V48h-2.23v5a2.08,2.08,0,0,0,.3,1.27,1.24,1.24,0,0,0,1,.38,1.53,1.53,0,0,0,.92-.29Z"/><path class="cls-1" d="M161.48,44.55a.92.92,0,0,1-.65-.26.88.88,0,0,1-.27-.66.87.87,0,0,1,.27-.66.93.93,0,0,1,1.31,0,.87.87,0,0,1,.27.66.92.92,0,0,1-.93.92Zm.69,11.09h-1.42V46.79h1.42Z"/><path class="cls-1" d="M168.74,55.85a4.08,4.08,0,0,1-3.13-1.24,4.6,4.6,0,0,1-1.17-3.29,4.79,4.79,0,0,1,1.21-3.48,4.38,4.38,0,0,1,3.3-1.25A4,4,0,0,1,172,47.8a4.85,4.85,0,0,1,1.11,3.38,4.75,4.75,0,0,1-1.2,3.4A4.2,4.2,0,0,1,168.74,55.85Zm.1-8.07a2.69,2.69,0,0,0-2.16.93,3.81,3.81,0,0,0-.79,2.56,3.62,3.62,0,0,0,.8,2.48,2.75,2.75,0,0,0,2.15.91,2.62,2.62,0,0,0,2.12-.89,4.75,4.75,0,0,0,0-5.09A2.6,2.6,0,0,0,168.84,47.78Z"/><path class="cls-1" d="M182.76,55.64h-1.42v-5c0-1.88-.69-2.82-2.06-2.82a2.22,2.22,0,0,0-1.76.8,3,3,0,0,0-.69,2v5h-1.42V46.79h1.42v1.47h0a3.21,3.21,0,0,1,2.91-1.67,2.71,2.71,0,0,1,2.22.93,4.21,4.21,0,0,1,.77,2.71Z"/><path class="cls-1" d="M191.76,55.64h-1.41V54.26h0a3,3,0,0,1-2.72,1.59,2.9,2.9,0,0,1-2.07-.7,2.43,2.43,0,0,1-.75-1.86c0-1.65,1-2.61,2.92-2.88l2.66-.38q0-2.25-1.83-2.25a4.32,4.32,0,0,0-2.88,1.09V47.42a5.41,5.41,0,0,1,3-.83q3.12,0,3.12,3.3Zm-1.41-4.47-2.14.29a3.41,3.41,0,0,0-1.48.49,1.4,1.4,0,0,0-.51,1.24,1.37,1.37,0,0,0,.47,1.06,1.77,1.77,0,0,0,1.23.41,2.29,2.29,0,0,0,1.74-.74,2.63,2.63,0,0,0,.69-1.87Z"/><path class="cls-1" d="M195.85,55.64h-1.42V42.54h1.42Z"/><path class="cls-1" d="M212.19,55.12a7.16,7.16,0,0,1-3.42.73,5.53,5.53,0,0,1-4.23-1.7A6.3,6.3,0,0,1,203,49.68a6.58,6.58,0,0,1,1.79-4.81A6.06,6.06,0,0,1,209.27,43a7.25,7.25,0,0,1,2.92.51V45.1a5.83,5.83,0,0,0-2.93-.74,4.49,4.49,0,0,0-3.46,1.42,5.35,5.35,0,0,0-1.33,3.81,5.09,5.09,0,0,0,1.24,3.61A4.21,4.21,0,0,0,209,54.55a6.11,6.11,0,0,0,3.23-.83Z"/><path class="cls-1" d="M221.87,55.64h-1.41v-5.1c0-1.84-.69-2.76-2.06-2.76a2.24,2.24,0,0,0-1.75.8,3,3,0,0,0-.7,2.05v5h-1.42V42.54H216v5.72h0a3.23,3.23,0,0,1,2.9-1.67c2,0,3,1.2,3,3.6Z"/><path class="cls-1" d="M231.66,51.57h-6.25a3.3,3.3,0,0,0,.79,2.28,2.75,2.75,0,0,0,2.1.81,4.32,4.32,0,0,0,2.74-1V55a5.07,5.07,0,0,1-3.08.85,3.76,3.76,0,0,1-3-1.2,5,5,0,0,1-1.07-3.4,4.83,4.83,0,0,1,1.17-3.36,3.74,3.74,0,0,1,2.91-1.3,3.33,3.33,0,0,1,2.69,1.12,4.71,4.71,0,0,1,.95,3.12Zm-1.45-1.2a2.91,2.91,0,0,0-.6-1.91,2,2,0,0,0-1.62-.68,2.3,2.3,0,0,0-1.7.72,3.2,3.2,0,0,0-.86,1.87Z"/><path class="cls-1" d="M241.15,55.64h-1.42v-5c0-1.88-.69-2.82-2.06-2.82a2.22,2.22,0,0,0-1.76.8,3,3,0,0,0-.69,2v5H233.8V46.79h1.42v1.47h0a3.21,3.21,0,0,1,2.91-1.67,2.71,2.71,0,0,1,2.22.93,4.21,4.21,0,0,1,.77,2.71Z"/><path class="cls-1" d="M251.37,54.93c0,3.25-1.55,4.88-4.67,4.88a6.28,6.28,0,0,1-2.86-.62V57.77a5.88,5.88,0,0,0,2.85.83c2.18,0,3.26-1.16,3.26-3.48v-1h0a3.58,3.58,0,0,1-5.7.51,4.73,4.73,0,0,1-1-3.17,5.45,5.45,0,0,1,1.09-3.58,3.61,3.61,0,0,1,3-1.33A2.88,2.88,0,0,1,249.92,48h0V46.79h1.42ZM250,51.64v-1.3a2.5,2.5,0,0,0-.71-1.81,2.34,2.34,0,0,0-1.77-.75,2.47,2.47,0,0,0-2.06.95,4.25,4.25,0,0,0-.75,2.68,3.63,3.63,0,0,0,.72,2.36,2.3,2.3,0,0,0,1.89.89,2.46,2.46,0,0,0,1.94-.85A3.19,3.19,0,0,0,250,51.64Z"/><path class="cls-1" d="M260.27,55.24a4.58,4.58,0,0,1-2.42.61,4,4,0,0,1-3.05-1.23,4.44,4.44,0,0,1-1.16-3.19,4.91,4.91,0,0,1,1.25-3.52,4.38,4.38,0,0,1,3.34-1.32,4.63,4.63,0,0,1,2.06.43v1.45a3.62,3.62,0,0,0-2.11-.69,2.84,2.84,0,0,0-2.22,1,3.69,3.69,0,0,0-.87,2.55,3.54,3.54,0,0,0,.81,2.46,2.84,2.84,0,0,0,2.2.9,3.55,3.55,0,0,0,2.17-.77Z"/><path class="cls-1" d="M269.76,55.64h-1.41v-5.1c0-1.84-.69-2.76-2.06-2.76a2.24,2.24,0,0,0-1.75.8,3,3,0,0,0-.71,2.05v5h-1.41V42.54h1.41v5.72h0a3.23,3.23,0,0,1,2.9-1.67c2,0,3,1.2,3,3.6Z"/><path class="cls-1" d="M273.16,44.55a.92.92,0,0,1-.65-.26.88.88,0,0,1-.27-.66.87.87,0,0,1,.27-.66.93.93,0,0,1,1.31,0,.87.87,0,0,1,.27.66.92.92,0,0,1-.93.92Zm.69,11.09h-1.42V46.79h1.42Z"/><path class="cls-1" d="M290.82,50.63c0,3.48-1.56,5.22-4.71,5.22s-4.51-1.67-4.51-5V43.25h1.46v7.48c0,2.54,1.07,3.82,3.21,3.82s3.1-1.23,3.1-3.69V43.25h1.45Z"/><path class="cls-1" d="M301.08,55.64h-1.42v-5c0-1.88-.69-2.82-2.06-2.82a2.22,2.22,0,0,0-1.76.8,3,3,0,0,0-.69,2v5h-1.42V46.79h1.42v1.47h0a3.21,3.21,0,0,1,2.91-1.67,2.74,2.74,0,0,1,2.22.93,4.21,4.21,0,0,1,.77,2.71Z"/><path class="cls-1" d="M304.47,44.55a.92.92,0,0,1-.65-.26.91.91,0,0,1-.26-.66.92.92,0,0,1,1.57-.66.87.87,0,0,1,.27.66.92.92,0,0,1-.93.92Zm.69,11.09h-1.41V46.79h1.41Z"/><path class="cls-1" d="M315,46.79l-3.53,8.85h-1.39l-3.35-8.85h1.55l2.25,6.43a5.73,5.73,0,0,1,.31,1.24h0a5.73,5.73,0,0,1,.27-1.2l2.35-6.47Z"/><path class="cls-1" d="M323.62,51.57h-6.25a3.31,3.31,0,0,0,.8,2.28,2.73,2.73,0,0,0,2.09.81,4.34,4.34,0,0,0,2.75-1V55a5.12,5.12,0,0,1-3.09.85,3.73,3.73,0,0,1-2.94-1.2,4.94,4.94,0,0,1-1.07-3.4,4.83,4.83,0,0,1,1.17-3.36,3.74,3.74,0,0,1,2.9-1.3,3.32,3.32,0,0,1,2.69,1.12,4.65,4.65,0,0,1,.95,3.12Zm-1.45-1.2a2.85,2.85,0,0,0-.59-1.91,2,2,0,0,0-1.62-.68,2.27,2.27,0,0,0-1.7.72,3.21,3.21,0,0,0-.87,1.87Z"/><path class="cls-1" d="M330.38,48.23a1.73,1.73,0,0,0-1.07-.29,1.83,1.83,0,0,0-1.52.86,4,4,0,0,0-.6,2.33v4.51h-1.42V46.79h1.42v1.83h0a3.09,3.09,0,0,1,.92-1.46,2.12,2.12,0,0,1,1.4-.52,2.3,2.3,0,0,1,.84.12Z"/><path class="cls-1" d="M331.38,55.32V53.8a4.24,4.24,0,0,0,2.55.86c1.25,0,1.87-.42,1.87-1.25a1.08,1.08,0,0,0-.16-.6,1.6,1.6,0,0,0-.43-.43,3.83,3.83,0,0,0-.64-.35l-.79-.31a10.26,10.26,0,0,1-1-.47,3.14,3.14,0,0,1-.75-.54,1.92,1.92,0,0,1-.45-.68,2.4,2.4,0,0,1-.15-.89,2.12,2.12,0,0,1,.29-1.1,2.42,2.42,0,0,1,.76-.8,3.44,3.44,0,0,1,1.08-.49,4.84,4.84,0,0,1,1.26-.16,5.18,5.18,0,0,1,2.06.39v1.44a4,4,0,0,0-2.25-.64,2.68,2.68,0,0,0-.72.09,1.85,1.85,0,0,0-.55.25,1.12,1.12,0,0,0-.35.4,1.06,1.06,0,0,0-.13.5,1.24,1.24,0,0,0,.13.58,1.22,1.22,0,0,0,.37.42,2.85,2.85,0,0,0,.58.33l.79.31a10.54,10.54,0,0,1,1,.47,3.47,3.47,0,0,1,.8.53,2.14,2.14,0,0,1,.51.69,2.36,2.36,0,0,1,.17.92,2.16,2.16,0,0,1-.29,1.15,2.45,2.45,0,0,1-.77.8,3.44,3.44,0,0,1-1.12.47,5.19,5.19,0,0,1-1.32.16A5.05,5.05,0,0,1,331.38,55.32Z"/><path class="cls-1" d="M340.16,44.55a.91.91,0,0,1-.65-.26.88.88,0,0,1-.27-.66.92.92,0,0,1,.92-.93.9.9,0,0,1,.66.27.87.87,0,0,1,.27.66.92.92,0,0,1-.93.92Zm.69,11.09h-1.42V46.79h1.42Z"/><path class="cls-1" d="M347.82,55.56a2.76,2.76,0,0,1-1.32.27c-1.55,0-2.32-.86-2.32-2.59V48h-1.53V46.79h1.53V44.63l1.41-.46v2.62h2.23V48h-2.23v5a2,2,0,0,0,.31,1.27,1.21,1.21,0,0,0,1,.38,1.51,1.51,0,0,0,.92-.29Z"/><path class="cls-1" d="M356.76,46.79l-4.07,10.27c-.73,1.83-1.75,2.75-3.06,2.75a3.48,3.48,0,0,1-.93-.11V58.43a2.77,2.77,0,0,0,.84.15,1.74,1.74,0,0,0,1.61-1.28l.71-1.67-3.46-8.84H350l2.39,6.81c0,.09.09.31.18.68h.05c0-.14.09-.36.17-.66l2.52-6.83Z"/><path class="cls-1" d="M369.75,55.64h-6.43V43.25h1.45V54.33h5Z"/><path class="cls-1" d="M372.19,44.55a.91.91,0,0,1-.65-.26.88.88,0,0,1-.27-.66.92.92,0,0,1,.92-.93.9.9,0,0,1,.66.27.87.87,0,0,1,.27.66.92.92,0,0,1-.93.92Zm.69,11.09h-1.42V46.79h1.42Z"/><path class="cls-1" d="M377.2,54.36h0v1.28h-1.41V42.54h1.41v5.81h0a3.35,3.35,0,0,1,3.06-1.76,3.24,3.24,0,0,1,2.66,1.18,4.9,4.9,0,0,1,1,3.19,5.5,5.5,0,0,1-1.08,3.56,3.6,3.6,0,0,1-3,1.33A2.91,2.91,0,0,1,377.2,54.36Zm0-3.57V52a2.61,2.61,0,0,0,.72,1.86,2.54,2.54,0,0,0,3.83-.22,4.55,4.55,0,0,0,.73-2.74,3.54,3.54,0,0,0-.69-2.31,2.25,2.25,0,0,0-1.85-.84,2.48,2.48,0,0,0-2,.86A3.11,3.11,0,0,0,377.16,50.79Z"/><path class="cls-1" d="M390.77,48.23a1.75,1.75,0,0,0-1.07-.29,1.82,1.82,0,0,0-1.52.86,3.93,3.93,0,0,0-.61,2.33v4.51h-1.42V46.79h1.42v1.83h0a3,3,0,0,1,.92-1.46,2.09,2.09,0,0,1,1.39-.52,2.36,2.36,0,0,1,.85.12Z"/><path class="cls-1" d="M398.64,55.64h-1.42V54.26h0a3,3,0,0,1-2.72,1.59,2.9,2.9,0,0,1-2.07-.7,2.43,2.43,0,0,1-.75-1.86c0-1.65,1-2.61,2.92-2.88l2.65-.38c0-1.5-.6-2.25-1.82-2.25a4.34,4.34,0,0,0-2.89,1.09V47.42a5.45,5.45,0,0,1,3-.83q3.12,0,3.12,3.3Zm-1.42-4.47-2.13.29a3.51,3.51,0,0,0-1.49.49,1.42,1.42,0,0,0-.5,1.24,1.39,1.39,0,0,0,.46,1.06,1.82,1.82,0,0,0,1.24.41,2.29,2.29,0,0,0,1.74-.74,2.67,2.67,0,0,0,.68-1.87Z"/><path class="cls-1" d="M405.93,48.23a1.75,1.75,0,0,0-1.07-.29,1.81,1.81,0,0,0-1.52.86,3.93,3.93,0,0,0-.61,2.33v4.51h-1.42V46.79h1.42v1.83h0a3,3,0,0,1,.93-1.46,2.09,2.09,0,0,1,1.39-.52,2.36,2.36,0,0,1,.85.12Z"/><path class="cls-1" d="M408.19,44.55a.92.92,0,0,1-.65-.26.88.88,0,0,1-.27-.66.87.87,0,0,1,.27-.66.93.93,0,0,1,1.31,0,.87.87,0,0,1,.27.66.92.92,0,0,1-.93.92Zm.69,11.09h-1.41V46.79h1.41Z"/><path class="cls-1" d="M418.86,51.57h-6.24a3.26,3.26,0,0,0,.79,2.28,2.73,2.73,0,0,0,2.09.81,4.32,4.32,0,0,0,2.75-1V55a5.11,5.11,0,0,1-3.08.85,3.75,3.75,0,0,1-2.95-1.2,4.94,4.94,0,0,1-1.07-3.4,4.83,4.83,0,0,1,1.17-3.36,3.74,3.74,0,0,1,2.91-1.3,3.31,3.31,0,0,1,2.68,1.12,4.65,4.65,0,0,1,.95,3.12Zm-1.45-1.2a2.85,2.85,0,0,0-.59-1.91,2,2,0,0,0-1.62-.68,2.27,2.27,0,0,0-1.7.72,3.21,3.21,0,0,0-.87,1.87Z"/><path class="cls-1" d="M420.47,55.32V53.8a4.19,4.19,0,0,0,2.55.86c1.25,0,1.87-.42,1.87-1.25a1.08,1.08,0,0,0-.16-.6,1.6,1.6,0,0,0-.43-.43,3.83,3.83,0,0,0-.64-.35l-.79-.31c-.39-.16-.74-.31-1-.47a3.29,3.29,0,0,1-.74-.54,1.92,1.92,0,0,1-.45-.68,2.4,2.4,0,0,1-.15-.89,2.12,2.12,0,0,1,.28-1.1,2.56,2.56,0,0,1,.77-.8,3.34,3.34,0,0,1,1.08-.49,4.84,4.84,0,0,1,1.26-.16,5.22,5.22,0,0,1,2.06.39v1.44a4,4,0,0,0-2.25-.64,2.63,2.63,0,0,0-.72.09,1.74,1.74,0,0,0-.55.25,1.12,1.12,0,0,0-.35.4,1,1,0,0,0-.13.5,1.13,1.13,0,0,0,.13.58,1.19,1.19,0,0,0,.36.42,3.26,3.26,0,0,0,.59.33l.79.31a10.54,10.54,0,0,1,1.05.47,3.71,3.71,0,0,1,.8.53,2,2,0,0,1,.5.69,2.19,2.19,0,0,1,.18.92,2.26,2.26,0,0,1-.29,1.15,2.45,2.45,0,0,1-.77.8,3.53,3.53,0,0,1-1.12.47,5.19,5.19,0,0,1-1.32.16A5.05,5.05,0,0,1,420.47,55.32Z"/><path class="cls-1" d="M138.73,4.15h7.33a14.24,14.24,0,0,0,1.3-1.57c.9-1.17,1.45-1.8,1.64-1.8.48,0,1.26.59,2.36,1.73A7.36,7.36,0,0,1,153,4.62c0,.4-.28.59-.75.59h-5.69V15H147s.28-.27.79-.82c.7-.75,1.14-1.14,1.33-1.14A6.43,6.43,0,0,1,151,14.43l.07.08c.48-1.41.91-2.75,1.22-4A88.15,88.15,0,0,0,154,.19c1.37.39,2.7.75,4,1.1s1.84.78,1.84,1.18-.35.7-1,.78-1.06.28-1.14.43c-.55,2-1.1,3.89-1.72,5.53h4.78a16.76,16.76,0,0,0,1.3-1.41c1.06-1.29,1.76-2,2.08-2S165.44,6.59,167,8c.94.9,1.45,1.45,1.45,1.69,0,.39-.27.58-.78.58h-2a59.91,59.91,0,0,1-2.95,10.2,32.82,32.82,0,0,1-2.7,5.53,15.35,15.35,0,0,0,2.27,2.08,25.85,25.85,0,0,0,6.55,3.65l-.27.63c-.9.08-1.61.79-2.12,2.12-.47.82-.78,1.25-1,1.25-.86,0-2.35-1-4.43-3a20.34,20.34,0,0,1-3.42-3.8,25.08,25.08,0,0,1-3.6,3.1,32.8,32.8,0,0,1-8.28,4l-.32-.63a44.27,44.27,0,0,0,6.83-4.94,24.36,24.36,0,0,0,3.69-4.4,11.71,11.71,0,0,1-.94-2.27,40.93,40.93,0,0,1-1.65-9.14,47.3,47.3,0,0,1-3.49,5.25l-.63-.58c.47-1.1.86-2.2,1.21-3.22h-4V27.18c2-.31,3.89-.7,5.69-1.1l.12.43a54.11,54.11,0,0,1-15.22,6.12c-.59,0-.87.2-.87.47a2.66,2.66,0,0,0-.15.59c-.08.32-.24.51-.43.51-.55,0-1.18-.94-1.93-2.82-.19-.51-.55-1.37-1-2.55l2.79-.24V16.71a45.43,45.43,0,0,0-.32-5.5c1,.12,2.4.32,4.05.55,1.25.24,1.92.44,1.92.67,0,.39-.35.71-1.06.94-.55.16-.79.47-.79.9V28.2c1-.12,2.08-.23,3.1-.39V5.21h-3.68c-2.28,0-3.85.08-4.75.16l-.63-1.53A32,32,0,0,0,138.73,4.15ZM155.24,17a22.56,22.56,0,0,0,2.47,6,43.4,43.4,0,0,0,1.57-4.08,54.1,54.1,0,0,0,2.16-8.67h-5.88c-.36.87-.71,1.65-1.06,2.36a1.7,1.7,0,0,0-.16.27A30.78,30.78,0,0,0,155.24,17Z"/><path class="cls-1" d="M188.63,9.21c-1.45,4.95-2.55,8.83-3.29,11.58a26.64,26.64,0,0,0-1,5.61,20.5,20.5,0,0,0,.16,2.59,24,24,0,0,1,.62,4.43,1.92,1.92,0,0,1-.55,1.53,2.28,2.28,0,0,1-1.76.63,4,4,0,0,1-2.36-.63,1.83,1.83,0,0,1-.54-1.53,14.92,14.92,0,0,1,.35-2.71c.08-.9.12-1.65.12-2.19a4,4,0,0,0-.51-2.08c-.4-.55-1.57-1-3.5-1.46l.16-.9a13.42,13.42,0,0,0,3.85-.35,3.4,3.4,0,0,0,1.37-1.81l6.12-12.86ZM182,12a2.89,2.89,0,0,1,1.26,2.27,3.26,3.26,0,0,1-1,2.2,2.4,2.4,0,0,1-1.77.71c-.55,0-1-.55-1.41-1.69a14,14,0,0,0-2.75-4.59l.47-.78A18.82,18.82,0,0,1,182,12Zm3.65-8.94a2.9,2.9,0,0,1,1.45,2.31,3.18,3.18,0,0,1-1,2.2,2.28,2.28,0,0,1-1.76.74c-.63,0-1.18-.55-1.65-1.72a13.47,13.47,0,0,0-3.26-4.71l.48-.79A19.77,19.77,0,0,1,185.65,3.06Zm14.12-1.34q1.89.7,1.89,1.53c0,.24-.32.39-.94.47a2.51,2.51,0,0,0-1.06.28,54.59,54.59,0,0,1-5.85,8.86c4.28-.12,8.32-.31,12.09-.59a31.44,31.44,0,0,0-2.71-4.74l.59-.47a24.15,24.15,0,0,1,5.76,4.27,5.48,5.48,0,0,1,1.61,3.26,3.45,3.45,0,0,1-.78,2.27,2.11,2.11,0,0,1-1.69.95,1.57,1.57,0,0,1-1.1-.4,7.6,7.6,0,0,1-1-3c-.08-.35-.2-.7-.31-1.1a74.28,74.28,0,0,1-14,3.65c-.63.08-.9.2-.9.35a1.89,1.89,0,0,0-.16.55c-.08.36-.23.51-.47.51-.55,0-1.18-.9-1.88-2.78-.24-.51-.55-1.37-1-2.55,1.41,0,2.82,0,4.2-.12A71,71,0,0,0,195.81.31C197.19.78,198.52,1.25,199.77,1.72Zm-4.9,19.15h7.85c.59-.75,1.14-1.42,1.68-2s.75-.74,1.06-.74a7.73,7.73,0,0,1,2.32,1.1c1.41.94,2.16,1.61,2.16,2a1.57,1.57,0,0,1-.71,1.14,1.49,1.49,0,0,0-.55,1.13v6.28c0,1.3,0,3,.16,5.22,0,.47-.71.86-2.12,1.14a11.8,11.8,0,0,1-1.41.11c-.71,0-1.06-.43-1.06-1.25V33.1H194.6V35c0,.47-.71.86-2.08,1.14a11.5,11.5,0,0,1-1.3.11c-.94,0-1.37-.43-1.37-1.25.2-3.06.31-5.77.31-8.12V26.4a68.37,68.37,0,0,0-.47-7.38A29.34,29.34,0,0,1,194.87,20.87Zm9.38,11.18V21.92H194.6V32.05Z"/><path class="cls-1" d="M225.79,11.21h8.12c.16-1.68.28-3.49.32-5.37,0-2.12-.08-3.92-.16-5.37,1.33.19,2.67.43,4,.66,1.84.36,2.79.71,2.79,1s-.32.71-.87,1-1,.59-1,.87c-.23,2.66-.47,5.1-.74,7.21h8.59a16.5,16.5,0,0,0,1.53-1.8c1.1-1.33,1.76-2,2-2,.55,0,1.45.67,2.63,1.92s1.84,2.12,1.84,2.4-.27.58-.78.58H239.6a34.09,34.09,0,0,0,2.55,7.14,20.54,20.54,0,0,0,4.71,6.44A29.18,29.18,0,0,0,254.94,31l-.16.9A4.61,4.61,0,0,0,252,34c-.47,1.06-.91,1.61-1.26,1.61s-1.26-.59-2.43-1.69A25.09,25.09,0,0,1,244,29a24.18,24.18,0,0,1-3.17-6.23,46.58,46.58,0,0,1-2.4-10.52h-.39a32.88,32.88,0,0,1-2.43,9.18,24.89,24.89,0,0,1-6.4,8.56,37.65,37.65,0,0,1-9.57,5.88l-.31-.78a37.93,37.93,0,0,0,8.2-7.3,26.66,26.66,0,0,0,5.06-9.53,40.29,40.29,0,0,0,1.17-6H225.2a36.87,36.87,0,0,0-5.22.32l-.62-1.85A47.6,47.6,0,0,0,225.79,11.21Z"/><path class="cls-1" d="M275.78,1.88c.94.55,1.45.94,1.45,1.21s-.28.36-.79.4-1,.07-1.06.19c-.66.16-1.37.28-2.07.39a25.66,25.66,0,0,1-2.67.28l.08,3h.55s.27-.27.78-.82c.71-.79,1.14-1.18,1.37-1.18a6.9,6.9,0,0,1,1.81,1.41c.63.55.94.9.94,1.06,0,.43-.16.63-.47.63h-4.94l.07,4h.59s.28-.27.79-.82c.7-.79,1.13-1.18,1.37-1.18a7.33,7.33,0,0,1,1.8,1.37c.63.59.95.94.95,1.1,0,.39-.16.59-.47.59h-5l.08,3.22H289.7l.2-3.34c-1.69,0-3.06,0-4.08.12L285.19,12a27.86,27.86,0,0,0,4.79.31l.19-3.68c-1.8,0-3.25.07-4.35.15l-.63-1.53a30.58,30.58,0,0,0,5,.32l.2-3.22c-1.73,0-3.22.08-4.43.16l-.63-1.53a37.32,37.32,0,0,0,4.63.31L291.27,2c.55-.55,1-.87,1.3-.87a5,5,0,0,1,2.12,1.22c1.13.9,1.72,1.45,1.72,1.69s-.39.78-1.18,1.1-1.09.82-1.13,1.21l-.4,9.1c.4-.31.67-.51.87-.51s1.06.55,2.31,1.57,1.65,1.53,1.65,1.92-.31.55-.9.63a2.73,2.73,0,0,0-1.22.16,31.53,31.53,0,0,1-4.78,2.43l-.59-.27a30.81,30.81,0,0,0,1.68-3.53H266.48c-.08.86-.12,1.53-.2,1.92a3.2,3.2,0,0,1-.82,1.88,1.18,1.18,0,0,1-.79.31,2.68,2.68,0,0,1-1.92-.66,1.89,1.89,0,0,1-.66-1.61c0-.31.31-.67,1-1.1a5.46,5.46,0,0,0,1.68-1.41,5.82,5.82,0,0,0,1-2.24l.79.12v1.69h.9l-.31-9A29.32,29.32,0,0,0,266.52,2l3.72,1.33c.48-.31.91-.63,1.3-.94A6.58,6.58,0,0,0,273.27.47C274.21,1,275,1.49,275.78,1.88Zm-1.46,19h9.34c.39-.36.71-.67,1-.91a3.07,3.07,0,0,1,1.65-.94c.43,0,1.26.55,2.43,1.57s1.85,1.73,1.85,2.12-.51.51-1.53.55a4.48,4.48,0,0,0-1.69.35c-1.41.63-2.63,1.18-3.65,1.57a.78.78,0,0,1,.28.43c0,.39-.36.71-1,.94a1.53,1.53,0,0,0-.94.59h8.52a13.62,13.62,0,0,0,1.29-1.57c.9-1.17,1.45-1.8,1.61-1.8.47,0,1.26.59,2.35,1.72s1.65,1.89,1.65,2.12c0,.4-.27.59-.78.59H282v3.85a3.67,3.67,0,0,1-1.5,3.33,6.42,6.42,0,0,1-3.41,1.1c-.39,0-.63-.35-.71-1.06-.23-1.18-1.6-2.35-4.19-3.53l.15-.75a26.93,26.93,0,0,0,4.59.59c.63,0,.95-.19.95-.59V28.2h-10c-2.24,0-3.8.08-4.75.16l-.62-1.53a32.22,32.22,0,0,0,5.37.31h10c0-.78-.16-1.88-.32-3.37,2,.31,3.41.59,4,.74h0a29.26,29.26,0,0,0,2.2-2.59h-9.5a35.44,35.44,0,0,0-4.74.32L269,20.4A28,28,0,0,0,274.32,20.87Zm9.38-11.5c.9.47,1.37.82,1.37,1.06s-.27.47-.74.47-.9.12-.94.31a4.11,4.11,0,0,1-.71.59,7.49,7.49,0,0,1,1.37,1.1,2.14,2.14,0,0,1,.71,1.53,2,2,0,0,1-.55,1.34,1.31,1.31,0,0,1-1.14.66c-.39,0-1.13-.74-2.27-2.27-.16-.2-.32-.39-.47-.55A23.86,23.86,0,0,1,275.11,16l-.16-.47a24.32,24.32,0,0,0,3.77-3.33l0,0c-.79-.59-1.57-1.14-2.43-1.69l.31-.59a25.13,25.13,0,0,1,3.3.83,12.8,12.8,0,0,0,1.45-2.52C282.25,8.63,283,9.06,283.7,9.37Zm.16-7.81c.86.47,1.33.83,1.33,1.06s-.23.44-.7.47-.91.12-1,.32a4.61,4.61,0,0,1-.36.39,6.87,6.87,0,0,1,.94.9,2.53,2.53,0,0,1,.67,1.61,2,2,0,0,1-.55,1.34,1.31,1.31,0,0,1-1.14.66c-.35,0-1.06-.78-2.08-2.35a21.07,21.07,0,0,1-4.35,2.51L276.48,8a23.39,23.39,0,0,0,2.95-3.49,2,2,0,0,1,.11-.2,20,20,0,0,0-2.63-2.16l.32-.59c1.33.32,2.47.63,3.41.95a14.18,14.18,0,0,0,.9-2.2A23,23,0,0,0,283.86,1.56Z"/><path class="cls-1" d="M311.84,2.31h22.51c.44-.43.83-.82,1.22-1.22.55-.58.94-.9,1.22-.9a5.86,5.86,0,0,1,2.39,1.18c1.37,1.1,2.08,1.8,2.08,2.19s-.39.67-1.1,1.06-.9.83-.9,1.22V27.3l.31,7.49c0,.47-.7.87-2.08,1.14a12.42,12.42,0,0,1-1.29.12c-.75,0-1.1-.43-1.1-1.26V33.73H311.52v1.06c0,.47-.63.87-1.88,1.14a9.34,9.34,0,0,1-1.18.12c-.94,0-1.41-.43-1.41-1.26.2-2.74.31-5.22.31-7.33V7.37c0-1.84-.11-4.08-.31-6.75A26.07,26.07,0,0,1,311.84,2.31ZM335.1,32.67V3.41H311.52V32.67Zm-15.38-27h6.83c.39-.47.74-.86,1.06-1.21a1.23,1.23,0,0,1,.9-.47,5.16,5.16,0,0,1,2.2,1.17c1.17.83,1.8,1.42,1.8,1.73s-.27.55-.74.78a1.62,1.62,0,0,0-.79.79v2.27c0,.47-.59.79-1.76,1a8.27,8.27,0,0,1-1.14.07c-.75,0-1.1-.27-1.1-.9v-.16h-1.53v2.75h4.43c.08,0,.39-.35.94-1.06s1.06-1.22,1.22-1.22c.35,0,.94.44,1.73,1.26A5,5,0,0,1,334.94,14c0,.43-.15.63-.43.63H317.17c-2.23,0-3.8.08-4.75.16l-.58-1.53a37.45,37.45,0,0,0,5.33.27h4.32V10.74h-2.16v.32c0,.47-.59.78-1.77.94a9,9,0,0,1-1.13.12c-.87,0-1.26-.36-1.26-1.06a19.21,19.21,0,0,0,.16-2.32V7.06c0-.83-.08-1.85-.16-3.06A31.47,31.47,0,0,1,319.72,5.68Zm-1.72,11h10.35c.47-.47.94-.94,1.41-1.34a1.31,1.31,0,0,1,.91-.47,6.87,6.87,0,0,1,1.92.91c1.18.82,1.76,1.37,1.76,1.68a1.29,1.29,0,0,1-.7,1,1.38,1.38,0,0,0-.51,1v6.75c0,1.1,0,2.55.12,4.43,0,.47-.63.79-1.85.94a9.86,9.86,0,0,1-1.21.12c-.63,0-.91-.35-.91-1.06v-.62H317.17v.78c0,.43-.55.75-1.65.94a7.89,7.89,0,0,1-1.09.12.93.93,0,0,1-1.06-1.06c.07-1.18.15-2.35.15-3.53V19.92c0-1.64-.08-3.29-.15-4.9A34.39,34.39,0,0,1,318,16.71ZM329.29,29V17.81H317.17V29Zm-6.94-9.07h1.57l1.1-1a1.28,1.28,0,0,1,.74-.39,5.23,5.23,0,0,1,1.61.79c.94.66,1.45,1.13,1.45,1.37s-.19.55-.59.82a1.16,1.16,0,0,0-.47.87V23c0,.94,0,2.2.16,3.81,0,.39-.55.67-1.57.82a6.89,6.89,0,0,1-1.06.12c-.51,0-.74-.31-.74-.94v-.59h-2.63V27c0,.39-.47.66-1.37.82a6.22,6.22,0,0,1-.91.12.84.84,0,0,1-.94-.94c.08-.95.16-1.93.16-2.91V22.55c0-1.37-.08-2.7-.16-4A31.84,31.84,0,0,1,322.35,19.92ZM327,9.69V6.78h-7.65V9.69Zm-2.43,15.45V21h-2.63v4.12Z"/><path class="cls-1" d="M358.8,4.15h5.38V3.68a20,20,0,0,0-.32-3.37c1.69.16,3.34.39,4.94.67,1,.07,1.5.31,1.5.74,0,.2-.32.43-.87.71s-1,.7-1,1.13v.59h4.91c.47-.43.86-.86,1.25-1.25.55-.59.94-.9,1.22-.9A4.72,4.72,0,0,1,378,3.29c1.18.94,1.81,1.53,1.81,1.81s-.28.7-.75,1a1.84,1.84,0,0,0-.78,1.26v.78h1.1a11.22,11.22,0,0,0,1-1.25c.7-.9,1.14-1.37,1.29-1.37.39,0,1.06.47,1.93,1.37a6.06,6.06,0,0,1,1.29,1.69c0,.43-.2.62-.59.62h-6a15,15,0,0,0,.16,2.59v.94c0,.51-.71.87-2,1.1A12,12,0,0,1,375,14c-.59,0-.94-.23-1-.74h-5.57v2.9h7.22a7.38,7.38,0,0,0,.94-1.1c.67-.78,1.06-1.22,1.22-1.22.35,0,.94.44,1.72,1.26s1.18,1.33,1.18,1.53c0,.39-.16.59-.47.59H368.45V20.4h9.81a7.85,7.85,0,0,0,1.22-1.34c.86-1,1.41-1.57,1.56-1.57.44,0,1.14.51,2.08,1.53s1.42,1.61,1.42,1.85c0,.43-.2.62-.59.62H353.9c-2.24,0-3.81,0-4.75.12l-.63-1.53a31.09,31.09,0,0,0,5.38.32h10.28V17.18h-7.5c-2.27,0-3.84.08-4.78.15l-.59-1.52a31.91,31.91,0,0,0,5.37.31h7.5v-2.9h-6.75c-1.85,0-3.34.07-4.44.15l-.62-1.57a30.48,30.48,0,0,0,5.06.32h6.75V9.21h-10c-2.24,0-3.81.08-4.75.16l-.62-1.53a31.16,31.16,0,0,0,5.37.31h10V5.21H358.8c-2.67,0-4.55.08-5.65.16l-.63-1.53A49.18,49.18,0,0,0,358.8,4.15Zm.31,20.09h14.25c.54-.59,1.09-1.1,1.56-1.57a1.67,1.67,0,0,1,1.06-.59,7.37,7.37,0,0,1,2.16,1.06c1.3.9,2,1.53,2,1.84s-.27.75-.78,1.06a1.44,1.44,0,0,0-.59,1.1v2.75c0,1.21,0,2.82.16,4.9,0,.47-.67.87-2,1.14a11.19,11.19,0,0,1-1.26.12c-.71,0-1.06-.43-1.06-1.26V33.73h-16.4v1.06c0,.47-.66.87-2,1.14a11.07,11.07,0,0,1-1.25.12,1.11,1.11,0,0,1-1.26-1.26c.08-1.37.16-2.7.16-4.12V27.93a52.47,52.47,0,0,0-.32-5.69A43.09,43.09,0,0,1,359.11,24.24Zm15.5,4.12V25.3h-16.4v3.06Zm0,4.31V29.46h-16.4v3.21ZM368.45,8.15H374V5.21h-5.53Zm0,4H374V9.21h-5.53Z"/><path class="cls-1" d="M401.8,1.52c1.1.36,1.69.71,1.69,1.1s-.31.63-.94.71-1,.2-1.06.35a18.47,18.47,0,0,1,4.67,1.57,2.81,2.81,0,0,1,1.49,2.28A2.17,2.17,0,0,1,407,9a1.48,1.48,0,0,1-1.17.51,2.41,2.41,0,0,1-2-1.53,12.14,12.14,0,0,0-2.87-3.34,17.6,17.6,0,0,1-3.18,4.08c-.47.47-.94.91-1.45,1.34a25,25,0,0,0,2.94.19h1.69c.2-.31.43-.78.75-1.41s.62-1.18.78-1.18.71.47,1.34,1.42a4.45,4.45,0,0,1,1,1.64c0,.44-.16.63-.48.63h-5.06c-.78,0-1.8.08-3.06.16l-.43-1a33.9,33.9,0,0,1-3.41,2.39l-.47-.47a30.27,30.27,0,0,0,4-5.53A28.63,28.63,0,0,0,398.16.47C399.41.86,400.63,1.21,401.8,1.52Zm-3.37,12.91h3.37c.4-.43.75-.86,1.1-1.25.47-.59.83-.91,1.06-.91a5.4,5.4,0,0,1,2.16,1.06c1.22.94,1.84,1.53,1.84,1.85s-.31.66-.86,1a1.61,1.61,0,0,0-.71,1.13v1.38l.32,6.9c0,.47-.67.79-2,.94a9.63,9.63,0,0,1-1.26.12c-.63,0-.9-.35-.9-1.06V25.3h-4.43v5.61c1.53-.16,3-.39,4.35-.63a16.59,16.59,0,0,0-2.24-3l.32-.63a15.91,15.91,0,0,1,5.53,2.59,4.2,4.2,0,0,1,1.37,3.1,2.57,2.57,0,0,1-.78,1.73,1.92,1.92,0,0,1-1.38.55c-.66,0-1.25-.67-1.72-1.93-.16-.39-.32-.82-.47-1.21A27.52,27.52,0,0,1,396,35c-.36,0-.51.15-.51.39a2,2,0,0,0-.12.47c-.08.28-.2.43-.35.43-.51,0-1.1-.86-1.77-2.55-.23-.47-.55-1.25-1-2.35.71,0,1.37-.08,2-.16V19.65a36.38,36.38,0,0,0-.47-6.75A25.07,25.07,0,0,1,398.43,14.43Zm4.16,4.91V15.49h-4.43v3.85Zm0,4.9V20.4h-4.43v3.84ZM418.83,1.13c.9,0,1.37.28,1.37.75,0,.15-.27.35-.78.59s-.9.59-.9.94v2.9H421c.47-.43.9-.78,1.25-1.1.51-.47.91-.74,1.18-.74a7.05,7.05,0,0,1,2.51,1.64c1.18.95,1.77,1.65,1.77,2s-.32.51-.91.59a2.71,2.71,0,0,0-1.21.16,20.69,20.69,0,0,1-2.67,2c.24.16.47.35.71.51,1.29.86,2,1.45,2,1.85s-.24.55-.67.86a1.35,1.35,0,0,0-.71.82v5.81c0,.47-.66.78-2,.94a11.07,11.07,0,0,1-1.25.12c-.75,0-1.1-.36-1.1-1.06v-.79h-6.43V24.4h6a16.64,16.64,0,0,1,1.65-1.69,1.69,1.69,0,0,1,1.09-.63,7.24,7.24,0,0,1,2.24,1.1c1.33,1,2,1.65,2,2s-.28.71-.79,1.06a1.41,1.41,0,0,0-.58,1.1v2.43c0,1.22,0,2.83.15,4.91,0,.51-.66.9-2,1.13a11.07,11.07,0,0,1-1.25.12c-.71,0-1.06-.43-1.06-1.25V33.26h-7.53v1.53c0,.47-.63.87-1.85,1.14a9.86,9.86,0,0,1-1.21.12c-.83,0-1.22-.43-1.22-1.26.08-1.33.16-2.63.16-4v-15c0-1.26-.08-2.52-.16-3.69a3.61,3.61,0,0,1-1.1.15,1.77,1.77,0,0,1-1.37-.58,1.88,1.88,0,0,1-.43-1.26c0-.24.58-.86,1.76-1.88A7.35,7.35,0,0,0,409.92,4l.79-.16a9.37,9.37,0,0,1,1.14,2.47h2.7V3.68a18.05,18.05,0,0,0-.31-3.21C415.81.62,417.34.86,418.83,1.13Zm.31,11c.43-.55.83-1,1.14-1.42a2.38,2.38,0,0,1,.63-.51c.23-.94.47-1.88.67-2.82h-9.65A6.18,6.18,0,0,1,411,10.9c1,.35,2,.75,3,1.22Zm.75,6.74V13.22h-6.43v5.64ZM421,32.2V25.46h-7.53V32.2Z"/><path class="cls-1" d="M91.67,29H69.82a6.22,6.22,0,0,0-1.34.26.5.5,0,0,0-.31.17c-.35.58-.94.51-1.5.58a1.78,1.78,0,0,0-1.37.68,1.08,1.08,0,0,1-.7.3,2,2,0,0,0-1.06.6c-.15.14-.31.27-.47.4l-.69.55c-.09.07-.19.18-.3.18a1.52,1.52,0,0,0-1,.6c-.61.64-1.19,1.3-1.76,2a6.47,6.47,0,0,0-.49.85c-.35.63-.81.72-1.27.2s-.8-1.14-1.25-1.67A5.5,5.5,0,0,0,54,32.75a.27.27,0,0,1-.12-.06,12.88,12.88,0,0,1-1.2-1,2.68,2.68,0,0,0-1.46-.8,1.36,1.36,0,0,1-.62-.4A1.8,1.8,0,0,0,49.34,30a2.61,2.61,0,0,1-1.62-.59A3.44,3.44,0,0,0,46.34,29a.88.88,0,0,0-.28,0H5a1.63,1.63,0,0,1-1.49-.63c-.15-.22-.51-.3-.77-.44l-1.05-.55A5.43,5.43,0,0,0,1.16,27a1.33,1.33,0,0,1-.85-1.26A2.43,2.43,0,0,1,.38,25a.85.85,0,0,1,.9-.6c2.81,0,5.62,0,8.43,0h5.18c1.76,0,3.52.06,5.28.06,3,0,6-.06,9-.06,4.25,0,8.49,0,12.73.06.42,0,.83-.08,1.25-.06a10.21,10.21,0,0,1,3.78.62,5.68,5.68,0,0,0,1.44.31,3.1,3.1,0,0,1,1.33.51,3,3,0,0,0,.84.42,3.69,3.69,0,0,1,1.37.69,8.68,8.68,0,0,0,1,.55,9.72,9.72,0,0,1,1.28.93c.7.64,1.36,1.32,2,2,.51.53,1,1.11,1.47,1.64a.48.48,0,0,0,.76,0c.47-.5.92-1,1.37-1.54.14-.15.26-.31.41-.45.82-.78,1.63-1.56,2.47-2.31a4.7,4.7,0,0,1,.86-.46c.28-.15.53-.34.8-.5s.55-.32.83-.45c.44-.21.88-.42,1.34-.59s.94-.33,1.42-.47c.67-.19,1.35-.39,2-.54a12,12,0,0,1,1.88-.28c.81-.07,1.63-.08,2.44-.08,6.32,0,12.63.06,19,.06,7,0,14.06-.05,21.08-.05a12.17,12.17,0,0,1,2.32.29,1.38,1.38,0,0,1,1,1.67c0,.23-.3.43-.49.61a2.92,2.92,0,0,1-1.74,1,2.47,2.47,0,0,0-1.2.74,1.09,1.09,0,0,1-.72.27c-4.59,0-9.17,0-13.75,0Z"/><path class="cls-1" d="M92.51,36H71.67c-.53,0-1.06,0-1.59,0a1.48,1.48,0,0,0-.57.16,11.94,11.94,0,0,1-1.25.6c-.4.14-.85.14-1.27.24a5,5,0,0,0-.83.35L64.91,38c-.2.11-.43.18-.63.29a12.74,12.74,0,0,0-1.12.67,4.87,4.87,0,0,0-.59.53c-.11.1-.19.24-.31.3a7.34,7.34,0,0,0-1.78,1.46,11.49,11.49,0,0,0-1,1.25c-.27.35-.51.72-.79,1.06a.73.73,0,0,1-1.18-.06c-.42-.54-.81-1.09-1.27-1.59s-1.06-1.1-1.61-1.62c-.3-.28-.65-.5-1-.77s-.32-.42-.53-.5c-.87-.31-1.53-1-2.46-1.24a1.43,1.43,0,0,1-.61-.34,2.83,2.83,0,0,0-1.7-.57,2.08,2.08,0,0,1-.87-.32A3.71,3.71,0,0,0,45,36a2.6,2.6,0,0,1-.39.05H4.83a1.83,1.83,0,0,1-1.52-.63C3,35,2.56,35,2.15,34.87a1.73,1.73,0,0,1-.5-.33A6.43,6.43,0,0,0,1,34a1.22,1.22,0,0,1-.63-1.17c0-.68.14-1.07.72-1.24a3.8,3.8,0,0,1,1.07,0c.17,0,.35.06.52.06q20.25,0,40.5,0a10.6,10.6,0,0,1,2.57.28c.81.21,1.65.32,2.47.53a10.8,10.8,0,0,1,1.34.5c.41.16.81.32,1.2.5s.76.42,1.13.64l2.06,1.28a10.39,10.39,0,0,1,2.2,2c.51.58,1,1.17,1.51,1.73.34.38.53.37.88,0,.77-.82,1.5-1.69,2.29-2.49a10.16,10.16,0,0,1,3.1-2.25c.2-.09.35-.28.55-.38.44-.21.89-.4,1.33-.59a5.73,5.73,0,0,0,.83-.39,5.36,5.36,0,0,1,2.3-.7c.6-.08,1.19-.28,1.79-.4a8.27,8.27,0,0,1,1.56-.23q21.35,0,42.69,0a3.88,3.88,0,0,1,2.57,1,.89.89,0,0,1-.14,1.35c-.29.21-.52.5-.79.73a2.63,2.63,0,0,1-.49.33,10.77,10.77,0,0,0-1.16.64,2.44,2.44,0,0,1-1.53.44Z"/><path class="cls-1" d="M101.69,2.84c0-1.06-.65-1.51-1.6-1.65a7.35,7.35,0,0,0-1,0H95.77a1.21,1.21,0,0,0-1.36,1.35V14.37a2.36,2.36,0,0,1-.49,1.54,3.37,3.37,0,0,1-3.87,1.26A3.82,3.82,0,0,1,88.4,16a2,2,0,0,1-.62-1.52V2.49a1.19,1.19,0,0,0-1.32-1.31H76.78c-.4,0-.8,0-1.19,0-1.2,0-2.39.14-3.58.13s-2.64-.1-4-.12a5.54,5.54,0,0,0-2.73.63c-.55.3-1.16.51-1.71.81-.3.16-.52.45-.81.63a7.7,7.7,0,0,0-2.34,2.38,3.62,3.62,0,0,1-.42.69,2.71,2.71,0,0,0-.78,1.47c-.09.41-.54.82-.86.79s-.5-.41-.6-.75a6.86,6.86,0,0,0-.44-1.17c-.1-.21-.33-.35-.44-.55a7.48,7.48,0,0,0-2.47-2.74A3.72,3.72,0,0,1,53.89,3a2.56,2.56,0,0,0-1.14-.66,14.26,14.26,0,0,1-1.34-.58,2.91,2.91,0,0,0-.93-.31c-1.1-.08-2.21-.13-3.31-.15-.57,0-1.15.07-1.72.06-.9,0-1.8-.13-2.7-.13-3.84,0-7.68,0-11.52,0a7.48,7.48,0,0,0-1.16,0c-.89.13-1.56.59-1.55,1.59,0,2.26,0,4.51,0,6.77,0,.41.07.83,0,1.24a.57.57,0,0,1-.25.45c-.18.1-.35,0-.48-.23-.79-1.26-1.59-2.52-2.42-3.76-.47-.7-1-1.36-1.48-2.06-.74-1.09-1.4-2.23-2.2-3.28a1.64,1.64,0,0,0-1.4-.73h-3.2l-.33,0a1.83,1.83,0,0,0-1.44.38,1.93,1.93,0,0,0-.68,1.6v17A4.53,4.53,0,0,0,15,22a1.33,1.33,0,0,0,1.26,1c1.37,0,2.74.06,4.1,0,1-.05,1.4-.28,1.43-1.33.06-2.41,0-4.82,0-7.24,0-.32-.07-.64-.05-.95a1.33,1.33,0,0,1,.19-.47,1.78,1.78,0,0,1,.48.23c.18.19.28.47.47.66a2.1,2.1,0,0,1,.65,1.18.73.73,0,0,0,.15.32q.63.78,1.29,1.53c.22.26.52.45.52.86a.7.7,0,0,0,.22.5c.58.49.73,1.3,1.39,1.73.18.12.26.38.39.58s.32.54.5.79.49.47.58.75a1.14,1.14,0,0,0,1.23.8Q35.86,23,42,23c.93,0,1.85-.11,2.78-.13.59,0,1.19,0,1.79.07.42,0,.84.09,1.26.14.23,0,.53,0,.66.13a3.58,3.58,0,0,0,2.34.82,1.12,1.12,0,0,1,.76.43c.18.37.5.42.8.56s.52.25.77.39a5.34,5.34,0,0,1,.48.35c.27.2.56.39.82.61s.41.44.62.66.27.23.39.35.35.37.51.56.34.46.5.7c0,.07,0,.19.1.25a5.15,5.15,0,0,1,.92,1.46c.19.43.64.58.92.31a5,5,0,0,0,1.38-1.78,4.12,4.12,0,0,1,.48-.77,4.51,4.51,0,0,1,.4-.47L62.11,26s.07,0,.1-.05c.4-.23.8-.48,1.21-.71a9,9,0,0,0,1-.52,4.13,4.13,0,0,1,2.19-.86,6.32,6.32,0,0,0,1.57-.53,4.13,4.13,0,0,1,.81-.29c.77-.08,1.54-.1,2.31-.16.47,0,.94-.12,1.41-.12s.72.12,1.09.12Q80.41,23,87,23c1.41,0,2.82,0,4.24-.07q1.53,0,3.06-.15a1.5,1.5,0,0,0,.78-.17,3.65,3.65,0,0,1,1.58-.55,1.92,1.92,0,0,0,.85-.37c.56-.48,1.07-1,1.59-1.55.23-.23.44-.48.65-.73s.23-.42.4-.53a1.42,1.42,0,0,0,.64-1.3,2.56,2.56,0,0,1,.47-1.49,2.19,2.19,0,0,0,.4-1.33C101.68,10.78,101.66,6.81,101.69,2.84ZM54,16.61c-.2.4-.43.79-.65,1.19a2.55,2.55,0,0,1-.35.6c-.61.59-1.23,1.17-1.87,1.72a2.88,2.88,0,0,1-.75.35,5,5,0,0,0-.71.3,3,3,0,0,1-1.57.44,9,9,0,0,0-1.72.22,4.18,4.18,0,0,1-1.76.05A14.8,14.8,0,0,1,42.74,21c-.54-.18-1-.51-1.56-.69a6.6,6.6,0,0,1-2-1.16,6.35,6.35,0,0,1-.71-.95,5.24,5.24,0,0,1-.86-1.53c-.11-.29-.33-.54-.46-.83a2.42,2.42,0,0,1-.32-.91c-.06-1.42-.07-2.84-.08-4.27A10.88,10.88,0,0,1,36.82,9a1.56,1.56,0,0,1,.38-.92,2,2,0,0,0,.6-1.38A1,1,0,0,1,38.22,6c.17-.17.3-.37.47-.54s.51-.46.77-.69c0,0,0,0,.06,0,.58-.76,1.6-.59,2.28-1.07a4.35,4.35,0,0,1,2.84-.63c.35,0,.71,0,1.07,0,.71,0,1.42,0,2.13,0a2.16,2.16,0,0,1,1.48.47A3.38,3.38,0,0,0,50.73,4a1.42,1.42,0,0,1,.63.33c.59.56,1.18,1.14,1.73,1.74a2,2,0,0,1,.34.79,1.3,1.3,0,0,1,0,.62c-.1.57-.38.81-1.08.82a7,7,0,0,0-1.88.28c-.89.25-1.21,0-1.85-.77a3.36,3.36,0,0,0-1.78-1.46,3.3,3.3,0,0,0-3.37.82,3.36,3.36,0,0,1-.41.34,1.87,1.87,0,0,0-.69,1.23,6,6,0,0,1-.59,1.65,4.89,4.89,0,0,0-.31,2.28,6.55,6.55,0,0,0,.71,2.19,4.7,4.7,0,0,1,.19,1.07,1.18,1.18,0,0,0,.51.84c.44.32.88.66,1.33,1a1.15,1.15,0,0,0,.55.2A20,20,0,0,0,47,17.87c.21,0,.41-.24.6-.38a8.52,8.52,0,0,0,.71-.62,3.83,3.83,0,0,0,.51-.62c.35-.49.68-1,1-1.5a.44.44,0,0,1,.63-.1A3.38,3.38,0,0,0,52,15a3.7,3.7,0,0,1,1.29.31,2.27,2.27,0,0,1,.73.8C54.12,16.22,54,16.46,54,16.61ZM80,16.6a3.67,3.67,0,0,0-.72,1.24,2.15,2.15,0,0,1-.45.66c-.54.52-1.1,1-1.66,1.52a.83.83,0,0,1-.27.17,8.14,8.14,0,0,0-2,1,3.09,3.09,0,0,1-1.21.31,7.49,7.49,0,0,1-1.33.13,9.38,9.38,0,0,1-1.18-.2l-1.76-.22a2.36,2.36,0,0,1-.71-.15,18.82,18.82,0,0,1-3.26-1.65,1,1,0,0,1-.19-.16,10.47,10.47,0,0,1-1.6-2.4,5.1,5.1,0,0,0-.48-.89,2.28,2.28,0,0,1-.39-1.26c0-1.8,0-3.6,0-5.4a1.61,1.61,0,0,1,.49-1.21,2.12,2.12,0,0,0,.52-1.24A1.1,1.1,0,0,1,64.33,6a.84.84,0,0,0,.24-.22,4,4,0,0,1,2.62-1.84,2.93,2.93,0,0,0,1-.44,2.34,2.34,0,0,1,1.55-.45,4.86,4.86,0,0,0,.54,0v0A10.22,10.22,0,0,1,71.59,3c1.12,0,2.25.12,3.37.22a1,1,0,0,1,.6.27,1.71,1.71,0,0,0,1,.44,1.27,1.27,0,0,1,1,.6c0,.09.14.15.21.22.51.51,1,1,1.52,1.54S79.6,7.79,79.22,8a3.07,3.07,0,0,1-1.06.28,14.33,14.33,0,0,0-1.46.24,1.49,1.49,0,0,1-2-.68,3.51,3.51,0,0,0-1.8-1.49,3.32,3.32,0,0,0-3.43.81c-.22.22-.44.43-.67.63s-.35.81-.49,1.23a5.62,5.62,0,0,1-.23.76,5.82,5.82,0,0,0-.34,4,9.3,9.3,0,0,0,.4.93,8.15,8.15,0,0,1,.29,1.37,1.14,1.14,0,0,0,.49.71c.29.25.6.46.89.7a2,2,0,0,0,1.23.47h1.66a.94.94,0,0,0,.87-.44,1.56,1.56,0,0,1,.39-.42A7.16,7.16,0,0,0,75.72,15c.3-.41.45-.47.94-.29A8.44,8.44,0,0,0,78,15a5.36,5.36,0,0,1,1.3.29,2.88,2.88,0,0,1,.83.9C80.17,16.26,80.1,16.51,80,16.6Z"/></svg>